<?xml version="1.0" encoding="UTF-8"?>
<svg id="Capa_2" data-name="Capa 2" xmlns="http://www.w3.org/2000/svg" viewBox="0 0 223.2 175.3">
  <defs>
    <style>
      .cls-1 {
        fill: #212833;
      }
    </style>
  </defs>
  <g id="BUILD">
    <g id="LOGO">
      <polygon class="cls-1" points="7.24 169.22 11.39 145.55 5.22 145.55 0 175.3 15 175.3 45.61 175.3 46.68 169.22 21.47 169.22 7.24 169.22"/>
      <polygon class="cls-1" points="68.37 51.42 77.33 51.42 85.16 36.94 91.71 0 74.49 0 56.04 33.33 48.97 0 31.68 0 22.56 51.42 36.93 51.42 41.96 22.83 46.63 51.42 58.59 51.42 73.4 22.97 68.37 51.42"/>
      <path class="cls-1" d="M94.35,51.42l4.23-8.39h18.23l1.31,8.39h9.69l2.63-14.83L123.6,0h-16.48l-27.79,51.42h15.02ZM112.59,15.46l2.55,16.7h-11.01l8.46-16.7Z"/>
      <path class="cls-1" d="M144.19,51.42l3.35-18.96h1.53l6.86,18.96h15.9l-8.02-20.06c3.37-.96,6.17-2.48,8.4-4.56l3.68-20.88c-.58-.83-1.27-1.61-2.09-2.31-2.82-2.41-6.93-3.61-12.32-3.61h-22.54l-9.12,51.42h14.37Zm6.93-39.53h7.08c1.65,0,2.91,.36,3.76,1.09,.85,.73,1.28,1.75,1.28,3.07,0,.24-.05,.66-.15,1.24-.68,3.6-2.92,5.4-6.71,5.4h-7.07l1.82-10.79Z"/>
      <path class="cls-1" d="M208.9,0l-5.25,29.83c-.49,2.72-1.53,4.84-3.14,6.34-1.6,1.51-3.72,2.26-6.34,2.26-2.19,0-3.8-.53-4.85-1.6-1.05-1.07-1.57-2.58-1.57-4.52,0-.78,.07-1.61,.22-2.48L193.15,0h-14.22l-5.25,29.83c-.34,1.7-.51,3.43-.51,5.18,0,5.45,1.69,9.63,5.07,12.54,3.38,2.92,7.86,4.38,13.46,4.38,4.33,0,8.31-.81,11.96-2.44,3.65-1.63,6.73-4.1,9.26-7.4,2.53-3.31,4.21-7.39,5.03-12.25L223.2,0h-14.3Z"/>
      <path class="cls-1" d="M85.04,114.04c6.17,0,11.62-1.56,16.34-4.67,2.29-1.51,4.32-3.17,6.1-4.97l5.48-10.13,1.77-9.92h-26.69l-1.82,10.29h14.37c-2.97,4.52-6.95,6.78-11.96,6.78-3.6,0-6.32-.84-8.17-2.52-1.85-1.68-2.77-4.14-2.77-7.4,0-.97,.12-2.19,.37-3.65,.68-3.94,2.27-7.08,4.78-9.41,2.5-2.34,5.53-3.5,9.08-3.5,1.99,0,3.65,.37,4.96,1.1s2.24,1.77,2.77,3.14h15.39c-.1-5.4-1.98-9.65-5.65-12.76-3.67-3.11-8.74-4.67-15.21-4.67-5.15,0-9.9,1.11-14.22,3.32-4.33,2.21-7.93,5.3-10.79,9.26-2.87,3.96-4.74,8.47-5.61,13.53-.34,1.75-.51,3.6-.51,5.54,0,4.08,.87,7.68,2.62,10.79,1.75,3.11,4.28,5.53,7.59,7.26,3.31,1.73,7.24,2.59,11.82,2.59Z"/>
      <path class="cls-1" d="M132.25,62.25l-27.79,51.42h15.02l4.23-8.39h18.23l1.31,8.39h9.69l2.63-14.83-6.85-36.59h-16.48Zm-2.99,32.16l8.46-16.7,2.55,16.7h-11.01Z"/>
      <polygon class="cls-1" points="192.3 91.35 178.37 62.25 164.08 62.25 154.96 113.67 169.33 113.67 174.43 84.94 188.29 113.67 202.66 113.67 211.7 62.25 197.41 62.25 192.3 91.35"/>
      <path class="cls-1" d="M120.71,138.31c-.45-1.62-1.09-3.12-1.92-4.5-1.82-3.01-4.45-5.34-7.88-6.97-3.43-1.63-7.5-2.44-12.22-2.44h-17.8l-9.04,50.91h17.8c5.4,0,10.31-1.04,14.73-3.14,4.42-2.09,8.08-5.04,10.98-8.86,.44-.58,.84-1.17,1.23-1.78l4.12-23.22Zm-10.13,11.62c-.97,5.35-3.17,9.53-6.6,12.54-3.43,3.02-7.82,4.52-13.16,4.52h-7.15l5.98-34.06h7.15c4.62,0,8.13,1.12,10.54,3.36s3.61,5.4,3.61,9.48c0,1.17-.12,2.55-.37,4.16Z"/>
      <polygon class="cls-1" points="150.49 132.34 148.98 124.39 148.98 124.39 148.96 124.32 125.19 124.32 116.15 175.3 145.76 175.3 147.21 167.21 127.89 167.21 130.29 153.42 147.43 153.42 148.82 145.55 131.68 145.55 134.01 132.34 150.49 132.34"/>
      <polygon class="cls-1" points="168.7 164.87 161.92 124.39 150.98 124.39 160.68 175.3 173.08 175.3 200.72 124.39 189.85 124.39 168.7 164.87"/>
    </g>
  </g>
</svg>