<?xml version="1.0" encoding="UTF-8"?>
<svg id="Capa_2" data-name="Capa 2" xmlns="http://www.w3.org/2000/svg" viewBox="0 0 35.63 35.63">
  <defs>
    <style>
      .cls-1 {
        fill: #2687be;
      }
    </style>
  </defs>
  <g id="ICONS">
    <path id="dark-mode" class="cls-1" d="M17.82,35.63c-4.95,0-9.16-1.73-12.62-5.2S0,22.76,0,17.82,1.73,8.66,5.2,5.2,12.87,0,17.82,0c.46,0,.92,.02,1.36,.05s.88,.08,1.31,.15c-1.35,.96-2.43,2.2-3.24,3.74s-1.21,3.19-1.21,4.97c0,2.97,1.04,5.49,3.12,7.57s4.6,3.12,7.57,3.12c1.81,0,3.48-.4,5-1.21s2.75-1.89,3.71-3.24c.07,.43,.12,.87,.15,1.31s.05,.9,.05,1.36c0,4.95-1.73,9.16-5.2,12.62s-7.67,5.2-12.62,5.2Zm0-3.96c2.9,0,5.51-.8,7.82-2.4,2.31-1.6,3.99-3.69,5.05-6.26-.66,.16-1.32,.3-1.98,.4s-1.32,.15-1.98,.15c-4.06,0-7.51-1.43-10.37-4.28-2.85-2.85-4.28-6.31-4.28-10.37,0-.66,.05-1.32,.15-1.98s.23-1.32,.4-1.98c-2.57,1.06-4.66,2.74-6.26,5.05-1.6,2.31-2.4,4.92-2.4,7.82,0,3.83,1.35,7.09,4.06,9.8,2.71,2.71,5.97,4.06,9.8,4.06Z"/>
  </g>
</svg>