<?xml version="1.0" encoding="UTF-8"?>
<svg id="Capa_2" data-name="Capa 2" xmlns="http://www.w3.org/2000/svg" viewBox="0 0 43.57 34.23">
  <defs>
    <style>
      .cls-1 {
        fill: #fff;
      }
    </style>
  </defs>
  <g id="ICONS_CONTACT" data-name="ICONS CONTACT">
    <path id="email-icon-negativo" class="cls-1" d="M43.45,4.91h0c-.19-.98-.63-1.9-1.26-2.66-.13-.17-.27-.32-.42-.46-1.12-1.14-2.69-1.79-4.3-1.79H6.09C4.46,0,2.93,.63,1.79,1.78c-.15,.15-.28,.29-.41,.46C.74,3.01,.31,3.94,.12,4.9c-.08,.37-.12,.77-.12,1.19V28.14c0,.83,.17,1.65,.5,2.42,.3,.7,.74,1.35,1.28,1.89,.13,.14,.27,.25,.42,.39,1.09,.9,2.47,1.4,3.89,1.4h31.39c1.43,0,2.81-.5,3.88-1.4,.14-.12,.28-.24,.42-.38,.53-.53,.95-1.13,1.29-1.89,.33-.76,.5-1.57,.5-2.41V6.08c0-.4-.05-.8-.12-1.18Zm-3.1,2.74V28.12l-11.74-10.22,11.74-10.24Zm-23.16,12.19l1.13,.98c1.92,1.67,5,1.68,6.94,0l1.13-.98,12.43,10.84c-.41,.22-.87,.33-1.34,.33H6.09c-.47,0-.93-.11-1.34-.33l12.44-10.84ZM39.73,4.31l-16.4,14.3c-.85,.74-2.21,.75-3.09,0L3.84,4.3c.06-.08,.13-.16,.21-.24,.54-.54,1.27-.84,2.04-.84h31.39c.77,0,1.5,.3,2.04,.84,.08,.08,.15,.16,.22,.25ZM14.95,17.89L3.21,28.13V7.65l11.74,10.24Z"/>
  </g>
</svg>