<?xml version="1.0" encoding="UTF-8"?>
<svg id="Capa_2" data-name="Capa 2" xmlns="http://www.w3.org/2000/svg" viewBox="0 0 25.5 36.51">
  <defs>
    <style>
      .cls-1 {
        fill: #fff;
      }
    </style>
  </defs>
  <g id="ICONS_CONTACT" data-name="ICONS CONTACT">
    <path id="figma-logo-negativo" class="cls-1" d="M22.97,12.75c.14-.12,.28-.24,.41-.37,1.37-1.37,2.12-3.19,2.12-5.13s-.75-3.76-2.12-5.13c-1.37-1.37-3.19-2.12-5.13-2.12H7.25c-1.94,0-3.76,.75-5.13,2.12C.75,3.49,0,5.31,0,7.25s.75,3.76,2.12,5.13c.13,.13,.27,.25,.41,.37-.14,.12-.28,.24-.41,.37-1.37,1.37-2.12,3.19-2.12,5.13s.75,3.76,2.12,5.13c.13,.13,.27,.25,.41,.37-.14,.12-.28,.24-.41,.37-1.37,1.37-2.12,3.19-2.12,5.13s.75,3.76,2.12,5.13c1.37,1.37,3.19,2.12,5.13,2.12s3.76-.75,5.13-2.12,2.12-3.19,2.12-5.13v-4.8c1.12,.68,2.41,1.05,3.75,1.05,1.94,0,3.76-.75,5.13-2.12,1.37-1.37,2.12-3.19,2.12-5.13s-.75-3.76-2.12-5.13c-.13-.13-.27-.25-.41-.37ZM14.5,3.5h3.75c1,0,1.94,.39,2.65,1.1,.71,.71,1.1,1.65,1.1,2.65s-.39,1.94-1.1,2.65c-.7,.7-1.67,1.1-2.65,1.1h-3.75V3.5ZM4.6,9.9c-.71-.71-1.1-1.65-1.1-2.65s.39-1.94,1.1-2.65c.71-.71,1.65-1.1,2.65-1.1h3.75v7.5h-3.75c-.99,0-1.95-.4-2.65-1.1Zm0,11c-.71-.71-1.1-1.65-1.1-2.65s.39-1.94,1.1-2.65c.7-.7,1.67-1.1,2.65-1.1h3.75v7.5h-3.75c-1,0-1.94-.39-2.65-1.1Zm6.4,8.35c0,.99-.4,1.95-1.1,2.65-1.42,1.42-3.89,1.42-5.31,0-.71-.71-1.1-1.65-1.1-2.65s.39-1.94,1.1-2.65c.71-.71,1.65-1.1,2.65-1.1h3.75v3.75Zm9.9-8.35c-1.42,1.42-3.89,1.42-5.3,0-.71-.71-1.1-1.65-1.1-2.65s.39-1.94,1.1-2.65c.7-.7,1.67-1.1,2.65-1.1s1.95,.4,2.65,1.1c.71,.71,1.1,1.65,1.1,2.65s-.39,1.94-1.1,2.65Z"/>
  </g>
</svg>