<?xml version="1.0" encoding="UTF-8"?>
<svg id="Capa_2" data-name="Capa 2" xmlns="http://www.w3.org/2000/svg" viewBox="0 0 25.5 36.51">
  <defs>
    <style>
      .cls-1 {
        fill: #1e1e1e;
      }
    </style>
  </defs>
  <g id="ICONS">
    <g>
      <path class="cls-1" d="M18.25,25.51c-1.94,0-3.76-.75-5.13-2.12-1.37-1.37-2.12-3.19-2.12-5.13s.75-3.76,2.12-5.13c1.37-1.37,3.19-2.12,5.13-2.12s3.76,.75,5.13,2.12c1.37,1.37,2.12,3.19,2.12,5.13s-.75,3.76-2.12,5.13c-1.37,1.37-3.19,2.12-5.13,2.12Zm0-11c-.99,0-1.95,.4-2.65,1.1-.71,.71-1.1,1.65-1.1,2.65s.39,1.94,1.1,2.65c1.42,1.42,3.89,1.42,5.3,0,.71-.71,1.1-1.65,1.1-2.65s-.39-1.94-1.1-2.65c-.7-.7-1.67-1.1-2.65-1.1Z"/>
      <path class="cls-1" d="M7.25,36.51c-1.94,0-3.76-.75-5.13-2.12-1.37-1.37-2.12-3.19-2.12-5.13s.75-3.76,2.12-5.13c1.37-1.37,3.19-2.12,5.13-2.12h7.25v7.25c0,1.94-.75,3.76-2.12,5.13s-3.19,2.12-5.13,2.12Zm0-11c-1,0-1.94,.39-2.65,1.1-.71,.71-1.1,1.65-1.1,2.65s.39,1.94,1.1,2.65c1.42,1.42,3.89,1.42,5.31,0,.7-.7,1.1-1.66,1.1-2.65v-3.75h-3.75Z"/>
      <path class="cls-1" d="M18.25,14.5h-7.25V0h7.25c1.94,0,3.76,.75,5.13,2.12,1.37,1.37,2.12,3.19,2.12,5.13s-.75,3.76-2.12,5.13c-1.37,1.37-3.19,2.12-5.13,2.12Zm-3.75-3.5h3.75c.99,0,1.95-.4,2.65-1.1,.71-.71,1.1-1.65,1.1-2.65s-.39-1.94-1.1-2.65c-.71-.71-1.65-1.1-2.65-1.1h-3.75v7.5Z"/>
      <path class="cls-1" d="M14.5,14.5H7.25c-1.94,0-3.76-.75-5.13-2.12C.75,11.01,0,9.19,0,7.25S.75,3.49,2.12,2.12C3.49,.75,5.31,0,7.25,0h7.25V14.5ZM7.25,3.5c-1,0-1.94,.39-2.65,1.1-.71,.71-1.1,1.65-1.1,2.65s.39,1.94,1.1,2.65c.7,.7,1.67,1.1,2.65,1.1h3.75V3.5h-3.75Z"/>
      <path class="cls-1" d="M14.5,25.51H7.25c-1.94,0-3.76-.75-5.13-2.12-1.37-1.37-2.12-3.19-2.12-5.13s.75-3.76,2.12-5.13c1.37-1.37,3.19-2.12,5.13-2.12h7.25v14.5ZM7.25,14.5c-.99,0-1.95,.4-2.65,1.1-.71,.71-1.1,1.65-1.1,2.65s.39,1.94,1.1,2.65c.71,.71,1.65,1.1,2.65,1.1h3.75v-7.5h-3.75Z"/>
    </g>
  </g>
</svg>