<?xml version="1.0" encoding="UTF-8"?>
<svg id="Capa_2" data-name="Capa 2" xmlns="http://www.w3.org/2000/svg" viewBox="0 0 37.14 36.52">
  <defs>
    <style>
      .cls-1 {
        fill: #fff;
        fill-rule: evenodd;
      }
    </style>
  </defs>
  <g id="ICONS_CONTACT" data-name="ICONS CONTACT">
    <path id="github-logo-negativo" class="cls-1" d="M18.58,0C8.31,0,0,8.37,0,18.72c0,8.28,5.32,15.28,12.71,17.76,.92,.19,1.26-.4,1.26-.9,0-.43-.03-1.92-.03-3.47-5.17,1.12-6.25-2.23-6.25-2.23-.83-2.17-2.06-2.73-2.06-2.73-1.69-1.15,.12-1.15,.12-1.15,1.88,.12,2.86,1.92,2.86,1.92,1.66,2.85,4.34,2.05,5.41,1.55,.15-1.21,.65-2.05,1.17-2.51-4.12-.43-8.46-2.05-8.46-9.24,0-2.05,.74-3.72,1.91-5.02-.18-.46-.83-2.39,.18-4.96,0,0,1.57-.5,5.11,1.92,1.51-.41,3.08-.62,4.65-.62,1.57,0,3.17,.22,4.65,.62,3.54-2.42,5.11-1.92,5.11-1.92,1.02,2.57,.37,4.49,.18,4.96,1.2,1.3,1.91,2.98,1.91,5.02,0,7.19-4.34,8.77-8.49,9.24,.68,.59,1.26,1.7,1.26,3.47,0,2.51-.03,4.53-.03,5.15,0,.5,.34,1.09,1.26,.9,7.38-2.48,12.71-9.48,12.71-17.76,.03-10.35-8.31-18.72-18.55-18.72Z"/>
  </g>
</svg>