<?xml version="1.0" encoding="UTF-8"?>
<svg id="Capa_2" data-name="Capa 2" xmlns="http://www.w3.org/2000/svg" viewBox="0 0 33.17 33.1">
  <g id="ICONS_CONTACT" data-name="ICONS CONTACT">
    <g id="linkedin-logo-positivo">
      <path d="M7.72,10.63H1.06c-.3,0-.53,.24-.53,.53v21.39c0,.3,.24,.53,.53,.53H7.72c.3,0,.53-.24,.53-.53V11.17c0-.3-.24-.53-.53-.53Z"/>
      <path d="M4.39,0C1.97,0,0,1.97,0,4.39s1.97,4.39,4.39,4.39,4.39-1.97,4.39-4.39c0-2.42-1.97-4.39-4.39-4.39Z"/>
      <path d="M24.66,10.1c-2.67,0-4.65,1.15-5.85,2.46v-1.39c0-.3-.24-.53-.53-.53h-6.38c-.3,0-.53,.24-.53,.53v21.39c0,.3,.24,.53,.53,.53h6.64c.3,0,.53-.24,.53-.53v-10.58c0-3.57,.97-4.96,3.45-4.96,2.71,0,2.92,2.23,2.92,5.14v10.4c0,.3,.24,.53,.53,.53h6.65c.3,0,.53-.24,.53-.53v-11.73c0-5.3-1.01-10.72-8.51-10.72Z"/>
    </g>
  </g>
</svg>